<svg xmlns="http://www.w3.org/2000/svg" xmlns:xlink="http://www.w3.org/1999/xlink" width="800" zoomAndPan="magnify" viewBox="0 0 600 449.999984" height="600" preserveAspectRatio="xMidYMid meet" version="1.0"><defs><g/><clipPath id="928f890fc9"><path d="M 40.546875 150 L 192.796875 150 L 192.796875 329.640625 L 40.546875 329.640625 Z M 40.546875 150 " clip-rule="nonzero"/></clipPath></defs><g clip-path="url(#928f890fc9)"><path fill="#000000" d="M 98.285156 168.332031 C 98.285156 168.332031 98.4375 168.238281 98.4375 168.238281 C 98.984375 167.820312 99.796875 168.046875 100.0625 168.710938 C 100.402344 169.558594 100.78125 170.804688 101.121094 172.597656 C 103.878906 187.757812 104.070312 255.300781 103.898438 280.050781 C 103.859375 284.222656 107.015625 287.808594 111.25 288.222656 C 111.53125 288.242188 111.816406 288.242188 112.0625 288.242188 C 116.21875 288.242188 119.753906 285.089844 120.1875 280.898438 L 120.1875 280.84375 C 120.601562 276.238281 121.074219 271.519531 121.566406 266.796875 C 121.566406 266.78125 121.566406 266.78125 121.566406 266.761719 C 125.914062 224.738281 132.695312 180.675781 137.875 170.390625 C 137.875 170.390625 141.769531 165.707031 142.957031 180.1875 C 142.695312 188.171875 140.140625 268.007812 143.070312 287.167969 C 143.695312 291.320312 144.601562 295.226562 145.792969 298.890625 C 134.679688 306.535156 121.71875 296.117188 120.113281 294.757812 C 116.710938 291.847656 111.570312 292.207031 108.640625 295.644531 C 105.695312 299.042969 106.070312 304.195312 109.472656 307.140625 C 115.332031 312.179688 125.875 318.050781 137.289062 318.050781 C 142.46875 318.050781 147.816406 316.84375 152.9375 313.765625 C 159.871094 323.828125 169.640625 329.640625 180.882812 329.640625 C 185.382812 329.640625 189.046875 326 189.046875 321.488281 C 189.046875 316.996094 185.382812 313.332031 180.882812 313.332031 C 173.988281 313.332031 168.828125 308.859375 165.238281 302.683594 C 181.660156 285.222656 188.765625 276.519531 192.769531 234.96875 L 192.769531 233.835938 C 192.789062 233.609375 192.769531 233.042969 192.769531 232.703125 C 192.75 231.96875 192.714844 229.835938 192.582031 229.117188 C 191.542969 223.058594 188.253906 209.464844 178.691406 203.785156 C 174.648438 201.386719 169.960938 200.972656 165.484375 202.574219 C 162.933594 203.480469 160.625 204.9375 158.546875 206.710938 C 158.8125 196.0625 159.058594 186.605469 159.304688 180.167969 L 159.304688 179.660156 L 159.265625 179.148438 C 158.132812 166.671875 154.089844 158.570312 147.265625 155.003906 C 142.5625 152.53125 137.515625 152.910156 133.8125 154.210938 C 132.1875 154.382812 130.542969 154.964844 129.105469 155.890625 C 126.554688 157.570312 122.871094 159.96875 118.261719 178.847656 C 117.957031 175.070312 117.597656 171.957031 117.183594 169.710938 C 115.480469 160.269531 111.476562 154.324219 105.316406 152.039062 C 98.851562 149.640625 92.902344 152.457031 90.007812 154.25 C 84.964844 156.042969 81.882812 161.820312 79.410156 170.539062 C 73.171875 154.191406 57.222656 149.90625 48.53125 150.191406 C 44.050781 150.304688 40.558594 153.984375 40.613281 158.457031 C 40.6875 162.914062 44.375 166.480469 48.832031 166.480469 C 48.832031 166.480469 48.851562 166.480469 48.871094 166.480469 C 51.289062 166.480469 63.25 167.105469 65.3125 181.054688 L 65.3125 280.105469 L 65.332031 280.105469 C 65.3125 284.316406 68.582031 287.921875 72.851562 288.242188 C 73.078125 288.261719 73.285156 288.261719 73.511719 288.261719 C 77.726562 288.261719 81.296875 285.015625 81.636719 280.730469 L 81.636719 280.691406 L 81.808594 278.617188 C 82.09375 274.765625 82.394531 270.875 82.714844 266.96875 L 82.714844 266.796875 C 86.042969 226.023438 91.578125 183.1875 96.339844 170.917969 C 96.699219 169.972656 97.324219 169.144531 98.097656 168.484375 L 98.285156 168.332031 M 159.285156 285.035156 C 159.246094 284.921875 159.246094 284.828125 159.210938 284.714844 C 158.339844 278.957031 158.019531 265.890625 158.019531 250.621094 C 158.019531 242.691406 159.738281 234.820312 163.234375 227.683594 C 164.386719 225.324219 165.632812 223.191406 166.917969 221.492188 C 168.640625 219.226562 172.152344 219.640625 173.304688 222.246094 C 173.324219 222.304688 173.34375 222.339844 173.382812 222.398438 C 175.875 228.0625 176.746094 234.308594 176.007812 240.464844 C 172.910156 266.175781 168.261719 274.878906 159.285156 285.035156 Z M 159.285156 285.035156 " fill-opacity="1" fill-rule="nonzero"/></g><path fill="#000000" d="M 81.789062 278.617188 C 81.75 279.3125 81.695312 279.992188 81.65625 280.691406 L 81.636719 280.691406 Z M 81.789062 278.617188 " fill-opacity="1" fill-rule="nonzero"/><g fill="#000000" fill-opacity="1"><g transform="translate(207.261074, 261.389365)"><g><path d="M 27.160156 0.910156 C 34.089844 0.910156 39.757812 -1.609375 43.046875 -5.039062 L 43.046875 -26.597656 L 26.25 -26.597656 L 26.25 -21.210938 L 37.097656 -21.210938 L 37.097656 -7.769531 C 35.070312 -5.878906 31.5 -4.761719 27.789062 -4.761719 C 16.800781 -4.761719 10.710938 -12.878906 10.710938 -25.828125 C 10.710938 -38.636719 17.429688 -46.617188 27.71875 -46.617188 C 32.96875 -46.617188 36.257812 -44.449219 38.847656 -41.71875 L 42.347656 -45.917969 C 39.410156 -49.066406 34.71875 -52.289062 27.578125 -52.289062 C 14 -52.289062 4.058594 -42.207031 4.058594 -25.617188 C 4.058594 -8.960938 13.648438 0.910156 27.160156 0.910156 Z M 27.160156 0.910156 "/></g></g></g><g fill="#000000" fill-opacity="1"><g transform="translate(255.488442, 261.389365)"><g><path d="M 17.5 0.910156 C 22.75 0.910156 26.527344 -1.820312 30.097656 -5.949219 L 30.308594 -5.949219 L 30.800781 0 L 36.117188 0 L 36.117188 -38.007812 L 29.75 -38.007812 L 29.75 -11.058594 C 26.109375 -6.511719 23.378906 -4.621094 19.460938 -4.621094 C 14.417969 -4.621094 12.320312 -7.628906 12.320312 -14.699219 L 12.320312 -38.007812 L 5.949219 -38.007812 L 5.949219 -13.929688 C 5.949219 -4.269531 9.519531 0.910156 17.5 0.910156 Z M 17.5 0.910156 "/></g></g></g><g fill="#000000" fill-opacity="1"><g transform="translate(297.976117, 261.389365)"><g><path d="M 6.441406 0 L 12.808594 0 L 12.808594 -27.578125 C 16.660156 -31.429688 19.320312 -33.390625 23.238281 -33.390625 C 28.277344 -33.390625 30.449219 -30.378906 30.449219 -23.238281 L 30.449219 0 L 36.820312 0 L 36.820312 -24.078125 C 36.820312 -33.808594 33.179688 -38.988281 25.199219 -38.988281 C 20.019531 -38.988281 16.097656 -36.117188 12.460938 -32.550781 L 12.25 -32.550781 L 11.691406 -38.007812 L 6.441406 -38.007812 Z M 6.441406 0 "/></g></g></g><g fill="#000000" fill-opacity="1"><g transform="translate(340.743784, 261.389365)"><g><path d="M 19.25 17.5 C 31.007812 17.5 38.429688 11.410156 38.429688 4.339844 C 38.429688 -1.890625 34.019531 -4.691406 25.199219 -4.691406 L 17.78125 -4.691406 C 12.667969 -4.691406 11.128906 -6.371094 11.128906 -8.820312 C 11.128906 -10.917969 12.179688 -12.179688 13.578125 -13.371094 C 15.257812 -12.53125 17.359375 -12.039062 19.25 -12.039062 C 26.949219 -12.039062 33.109375 -17.148438 33.109375 -25.269531 C 33.109375 -28.558594 31.847656 -31.359375 30.027344 -33.109375 L 37.796875 -33.109375 L 37.796875 -38.007812 L 24.570312 -38.007812 C 23.238281 -38.5 21.347656 -38.988281 19.25 -38.988281 C 11.550781 -38.988281 4.96875 -33.738281 4.96875 -25.410156 C 4.96875 -20.859375 7.417969 -17.21875 9.941406 -15.191406 L 9.941406 -14.910156 C 7.980469 -13.507812 5.667969 -10.988281 5.667969 -7.839844 C 5.667969 -4.828125 7.140625 -2.800781 9.167969 -1.609375 L 9.167969 -1.328125 C 5.601562 0.980469 3.5 4.058594 3.5 7.28125 C 3.5 13.859375 9.941406 17.5 19.25 17.5 Z M 19.25 -16.378906 C 14.839844 -16.378906 11.128906 -19.878906 11.128906 -25.410156 C 11.128906 -31.007812 14.769531 -34.296875 19.25 -34.296875 C 23.730469 -34.296875 27.300781 -30.9375 27.300781 -25.410156 C 27.300781 -19.878906 23.589844 -16.378906 19.25 -16.378906 Z M 20.160156 13.160156 C 13.230469 13.160156 9.101562 10.5 9.101562 6.441406 C 9.101562 4.199219 10.289062 1.960938 13.019531 0 C 14.699219 0.421875 16.519531 0.628906 17.917969 0.628906 L 24.5 0.628906 C 29.539062 0.628906 32.269531 1.820312 32.269531 5.320312 C 32.269531 9.308594 27.4375 13.160156 20.160156 13.160156 Z M 20.160156 13.160156 "/></g></g></g><g fill="#000000" fill-opacity="1"><g transform="translate(380.151626, 261.389365)"><g><path d="M 6.441406 0 L 12.808594 0 L 12.808594 -27.578125 C 16.660156 -31.429688 19.320312 -33.390625 23.238281 -33.390625 C 28.277344 -33.390625 30.449219 -30.378906 30.449219 -23.238281 L 30.449219 0 L 36.820312 0 L 36.820312 -24.078125 C 36.820312 -33.808594 33.179688 -38.988281 25.199219 -38.988281 C 20.019531 -38.988281 16.097656 -36.117188 12.460938 -32.550781 L 12.25 -32.550781 L 11.691406 -38.007812 L 6.441406 -38.007812 Z M 6.441406 0 "/></g></g></g><g fill="#000000" fill-opacity="1"><g transform="translate(422.919292, 261.389365)"><g><path d="M 6.441406 0 L 12.808594 0 L 12.808594 -38.007812 L 6.441406 -38.007812 Z M 9.660156 -45.847656 C 12.179688 -45.847656 14.070312 -47.597656 14.070312 -49.976562 C 14.070312 -52.566406 12.179688 -54.109375 9.660156 -54.109375 C 7.140625 -54.109375 5.25 -52.566406 5.25 -49.976562 C 5.25 -47.597656 7.140625 -45.847656 9.660156 -45.847656 Z M 9.660156 -45.847656 "/></g></g></g><g fill="#000000" fill-opacity="1"><g transform="translate(442.168253, 261.389365)"><g><path d="M 6.441406 0 L 12.808594 0 L 12.808594 -24.429688 C 15.328125 -30.9375 19.25 -33.179688 22.398438 -33.179688 C 23.9375 -33.179688 24.847656 -33.039062 26.109375 -32.550781 L 27.300781 -38.148438 C 26.109375 -38.777344 24.917969 -38.988281 23.238281 -38.988281 C 18.96875 -38.988281 15.121094 -35.910156 12.460938 -31.078125 L 12.25 -31.078125 L 11.691406 -38.007812 L 6.441406 -38.007812 Z M 6.441406 0 "/></g></g></g><g fill="#000000" fill-opacity="1"><g transform="translate(469.326775, 261.389365)"><g><path d="M 7 0 L 12.878906 0 L 12.878906 -28.417969 C 12.878906 -32.828125 12.390625 -39.058594 12.109375 -43.539062 L 12.390625 -43.539062 L 16.449219 -31.847656 L 26.179688 -5.179688 L 30.519531 -5.179688 L 40.25 -31.847656 L 44.308594 -43.539062 L 44.589844 -43.539062 C 44.238281 -39.058594 43.75 -32.828125 43.75 -28.417969 L 43.75 0 L 49.839844 0 L 49.839844 -51.308594 L 42 -51.308594 L 32.199219 -23.871094 C 31.007812 -20.300781 29.890625 -16.730469 28.699219 -13.160156 L 28.347656 -13.160156 C 27.089844 -16.730469 25.898438 -20.300781 24.710938 -23.871094 L 14.839844 -51.308594 L 7 -51.308594 Z M 7 0 "/></g></g></g><g fill="#000000" fill-opacity="1"><g transform="translate(526.163669, 261.389365)"><g><path d="M 15.328125 0 L 21.839844 0 L 21.839844 -19.949219 L 37.238281 -51.308594 L 30.519531 -51.308594 L 23.871094 -36.820312 C 22.328125 -33.039062 20.578125 -29.46875 18.757812 -25.617188 L 18.480469 -25.617188 C 16.660156 -29.46875 15.121094 -33.039062 13.441406 -36.820312 L 6.859375 -51.308594 L -0.0703125 -51.308594 L 15.328125 -19.949219 Z M 15.328125 0 "/></g></g></g></svg>